<svg width="16" height="16" viewBox="0 0 16 16" fill="none" xmlns="http://www.w3.org/2000/svg">
<path d="M14.3332 8.63366V7.36699C14.3332 4.68033 14.3332 3.33633 13.4058 2.50166C12.4785 1.66699 10.9858 1.66699 7.99984 1.66699C5.0145 1.66699 3.52117 1.66699 2.59384 2.50166C1.6665 3.33633 1.6665 4.68033 1.6665 7.36699V8.63366C1.6665 11.3203 1.6665 12.6643 2.59384 13.499C3.52117 14.3337 5.01384 14.3337 7.99984 14.3337C10.9852 14.3337 12.4785 14.3337 13.4058 13.499C14.3332 12.6643 14.3332 11.3203 14.3332 8.63366Z" stroke="black"/>
<path d="M12 5.33333H9.33333M10.6667 4V6.66667M12 11.6667H9.33333M12 9.66667H9.33333M6.66667 11.6667L5.5 10.5M5.5 10.5L4.33333 9.33333M5.5 10.5L6.66667 9.33333M5.5 10.5L4.33333 11.6667M6.66667 5.33333H4" stroke="black" stroke-linecap="round" stroke-linejoin="round"/>
</svg>
